<svg class="svg-icon" style="width: 1em;height: 1em;vertical-align: middle;fill: currentColor;overflow: hidden;" viewBox="0 0 1024 1024" version="1.1" xmlns="http://www.w3.org/2000/svg"><path d="M806.6 468.8L539 218.6c-15.2-14.2-38.9-14.2-54.1 0L217.4 468.8c-8.9 8.3-11.8 20.9-7.4 32.1 4.6 11.6 15.8 19.1 28.6 19.1h37.1c1.4 0 2.1 0.8 2.1 1.2v234.1c0 33.5 28.5 60.7 63.4 60.7H406c21.4 0 38.9-16.8 38.9-37.5V667.4c0-21.5 15.6-39 34.8-39h64.7c19.2 0 34.8 17.5 34.8 39v111.1c0 20.7 17.4 37.5 38.9 37.5h75.3c35 0 63.4-27.2 63.4-60.7V521.2c0-0.4 0.7-1.2 2.1-1.2h26.5c12.8 0 24.1-7.5 28.6-19.1 4.4-11.2 1.5-23.8-7.4-32.1z m-19.5 22c-0.4 0.4-1 0.6-1.8 0.6h-26.5c-16.9 0-30.7 13.4-30.7 29.8v234.1c0 17.7-15.6 32.1-34.8 32.1H618c-5.7 0-10.3-4-10.3-8.9V667.4c0-37.3-28.5-67.6-63.4-67.6h-64.7c-35 0-63.4 30.3-63.4 67.6v111.1c0 4.9-4.6 8.9-10.3 8.9h-64.7c-19.2 0-34.8-14.4-34.8-32.1V521.2c0-16.4-13.8-29.8-30.7-29.8h-37.1c-0.8 0-1.4-0.2-1.8-0.6-0.3-0.3-0.3-0.6-0.3-0.7 0 0 0.1-0.2 0.4-0.4l267.6-250.2c4.1-3.8 11-3.8 15 0l267.6 250.2c0.3 0.2 0.3 0.4 0.4 0.4-0.1 0.1-0.1 0.4-0.4 0.7z" fill="#333333" /></svg>